<mxfile host="app.diagrams.net" agent="Mozilla/5.0 (Windows NT 10.0; Win64; x64) AppleWebKit/537.36 (KHTML, like Gecko) Chrome/129.0.0.0 Safari/537.36 Edg/129.0.0.0" version="24.7.16">
  <diagram name="PÃ¡gina-1" id="ljvm-qNWrAEA8Rz4F9fG">
    <mxGraphModel dx="1434" dy="907" grid="1" gridSize="10" guides="1" tooltips="1" connect="1" arrows="1" fold="1" page="1" pageScale="1" pageWidth="827" pageHeight="1169" math="0" shadow="0">
      <root>
        <mxCell id="0" />
        <mxCell id="1" parent="0" />
        <mxCell id="YznO8OeNDI3P7o4ZiOMl-1" value="&lt;font style=&quot;font-size: 18px;&quot;&gt;SISTEMA SPOTIFY&lt;/font&gt;" style="text;html=1;align=center;verticalAlign=middle;resizable=0;points=[];autosize=1;strokeColor=none;fillColor=none;" vertex="1" parent="1">
          <mxGeometry x="324" y="143" width="180" height="40" as="geometry" />
        </mxCell>
        <mxCell id="YznO8OeNDI3P7o4ZiOMl-177" style="edgeStyle=orthogonalEdgeStyle;rounded=0;orthogonalLoop=1;jettySize=auto;html=1;exitX=0.5;exitY=1;exitDx=0;exitDy=0;entryX=0.5;entryY=0;entryDx=0;entryDy=0;" edge="1" parent="1" source="YznO8OeNDI3P7o4ZiOMl-172" target="YznO8OeNDI3P7o4ZiOMl-174">
          <mxGeometry relative="1" as="geometry" />
        </mxCell>
        <mxCell id="YznO8OeNDI3P7o4ZiOMl-201" style="edgeStyle=orthogonalEdgeStyle;rounded=0;orthogonalLoop=1;jettySize=auto;html=1;exitX=1;exitY=0.5;exitDx=0;exitDy=0;entryX=0.5;entryY=0;entryDx=0;entryDy=0;" edge="1" parent="1" source="YznO8OeNDI3P7o4ZiOMl-172" target="YznO8OeNDI3P7o4ZiOMl-180">
          <mxGeometry relative="1" as="geometry">
            <Array as="points">
              <mxPoint x="200" y="370" />
              <mxPoint x="360" y="370" />
            </Array>
          </mxGeometry>
        </mxCell>
        <mxCell id="YznO8OeNDI3P7o4ZiOMl-172" value="CLIENTE" style="rounded=0;whiteSpace=wrap;html=1;" vertex="1" parent="1">
          <mxGeometry x="80" y="320" width="120" height="60" as="geometry" />
        </mxCell>
        <mxCell id="YznO8OeNDI3P7o4ZiOMl-173" value="MUSICA" style="rounded=0;whiteSpace=wrap;html=1;" vertex="1" parent="1">
          <mxGeometry x="80" y="650" width="120" height="60" as="geometry" />
        </mxCell>
        <mxCell id="YznO8OeNDI3P7o4ZiOMl-178" style="edgeStyle=orthogonalEdgeStyle;rounded=0;orthogonalLoop=1;jettySize=auto;html=1;exitX=0.5;exitY=1;exitDx=0;exitDy=0;entryX=0.5;entryY=0;entryDx=0;entryDy=0;" edge="1" parent="1" source="YznO8OeNDI3P7o4ZiOMl-174" target="YznO8OeNDI3P7o4ZiOMl-173">
          <mxGeometry relative="1" as="geometry" />
        </mxCell>
        <mxCell id="YznO8OeNDI3P7o4ZiOMl-174" value="OUVE" style="shape=rhombus;perimeter=rhombusPerimeter;whiteSpace=wrap;html=1;align=center;" vertex="1" parent="1">
          <mxGeometry x="80" y="480" width="120" height="60" as="geometry" />
        </mxCell>
        <mxCell id="YznO8OeNDI3P7o4ZiOMl-179" value="PODCAST" style="rounded=0;whiteSpace=wrap;html=1;" vertex="1" parent="1">
          <mxGeometry x="294" y="650" width="120" height="60" as="geometry" />
        </mxCell>
        <mxCell id="YznO8OeNDI3P7o4ZiOMl-180" value="OUVE" style="shape=rhombus;perimeter=rhombusPerimeter;whiteSpace=wrap;html=1;align=center;" vertex="1" parent="1">
          <mxGeometry x="300" y="480" width="120" height="60" as="geometry" />
        </mxCell>
        <mxCell id="YznO8OeNDI3P7o4ZiOMl-182" value="" style="line;strokeWidth=2;direction=south;html=1;fillColor=#f8cecc;strokeColor=#b85450;" vertex="1" parent="1">
          <mxGeometry x="80" y="240" width="10" height="80" as="geometry" />
        </mxCell>
        <mxCell id="YznO8OeNDI3P7o4ZiOMl-183" value="" style="line;strokeWidth=2;direction=south;html=1;" vertex="1" parent="1">
          <mxGeometry x="110" y="270" width="10" height="50" as="geometry" />
        </mxCell>
        <mxCell id="YznO8OeNDI3P7o4ZiOMl-184" value="" style="line;strokeWidth=2;direction=south;html=1;" vertex="1" parent="1">
          <mxGeometry x="140" y="200" width="10" height="120" as="geometry" />
        </mxCell>
        <mxCell id="YznO8OeNDI3P7o4ZiOMl-186" value="" style="line;strokeWidth=2;direction=south;html=1;" vertex="1" parent="1">
          <mxGeometry x="170" y="300" width="10" height="20" as="geometry" />
        </mxCell>
        <mxCell id="YznO8OeNDI3P7o4ZiOMl-189" value="" style="line;strokeWidth=2;direction=south;html=1;fillColor=#f8cecc;strokeColor=#b85450;" vertex="1" parent="1">
          <mxGeometry x="80" y="710" width="10" height="80" as="geometry" />
        </mxCell>
        <mxCell id="YznO8OeNDI3P7o4ZiOMl-190" value="" style="line;strokeWidth=2;direction=south;html=1;" vertex="1" parent="1">
          <mxGeometry x="110" y="710" width="10" height="50" as="geometry" />
        </mxCell>
        <mxCell id="YznO8OeNDI3P7o4ZiOMl-191" value="" style="line;strokeWidth=2;direction=south;html=1;" vertex="1" parent="1">
          <mxGeometry x="150" y="710" width="10" height="120" as="geometry" />
        </mxCell>
        <mxCell id="YznO8OeNDI3P7o4ZiOMl-193" value="" style="line;strokeWidth=2;direction=south;html=1;" vertex="1" parent="1">
          <mxGeometry x="185" y="710" width="10" height="180" as="geometry" />
        </mxCell>
        <mxCell id="YznO8OeNDI3P7o4ZiOMl-194" value="" style="line;strokeWidth=2;direction=south;html=1;fillColor=#f8cecc;strokeColor=#b85450;" vertex="1" parent="1">
          <mxGeometry x="300" y="710" width="10" height="80" as="geometry" />
        </mxCell>
        <mxCell id="YznO8OeNDI3P7o4ZiOMl-195" value="" style="line;strokeWidth=2;direction=south;html=1;" vertex="1" parent="1">
          <mxGeometry x="324" y="710" width="10" height="180" as="geometry" />
        </mxCell>
        <mxCell id="YznO8OeNDI3P7o4ZiOMl-196" value="" style="line;strokeWidth=2;direction=south;html=1;" vertex="1" parent="1">
          <mxGeometry x="349" y="710" width="10" height="70" as="geometry" />
        </mxCell>
        <mxCell id="YznO8OeNDI3P7o4ZiOMl-197" value="" style="line;strokeWidth=2;direction=south;html=1;" vertex="1" parent="1">
          <mxGeometry x="394" y="710" width="10" height="130" as="geometry" />
        </mxCell>
        <mxCell id="YznO8OeNDI3P7o4ZiOMl-202" value="ID" style="text;html=1;align=center;verticalAlign=middle;resizable=0;points=[];autosize=1;strokeColor=none;fillColor=none;" vertex="1" parent="1">
          <mxGeometry x="70" y="218" width="40" height="30" as="geometry" />
        </mxCell>
        <mxCell id="YznO8OeNDI3P7o4ZiOMl-203" value="NOME" style="text;html=1;align=center;verticalAlign=middle;resizable=0;points=[];autosize=1;strokeColor=none;fillColor=none;" vertex="1" parent="1">
          <mxGeometry x="90" y="238" width="60" height="30" as="geometry" />
        </mxCell>
        <mxCell id="YznO8OeNDI3P7o4ZiOMl-204" value="ASSINATURA" style="text;html=1;align=center;verticalAlign=middle;resizable=0;points=[];autosize=1;strokeColor=none;fillColor=none;" vertex="1" parent="1">
          <mxGeometry x="95" y="170" width="100" height="30" as="geometry" />
        </mxCell>
        <mxCell id="YznO8OeNDI3P7o4ZiOMl-208" value="ID" style="text;html=1;align=center;verticalAlign=middle;resizable=0;points=[];autosize=1;strokeColor=none;fillColor=none;" vertex="1" parent="1">
          <mxGeometry x="65" y="790" width="40" height="30" as="geometry" />
        </mxCell>
        <mxCell id="YznO8OeNDI3P7o4ZiOMl-209" value="TIPO_MUSICA" style="text;html=1;align=center;verticalAlign=middle;resizable=0;points=[];autosize=1;strokeColor=none;fillColor=none;" vertex="1" parent="1">
          <mxGeometry x="150" y="270" width="100" height="30" as="geometry" />
        </mxCell>
        <mxCell id="YznO8OeNDI3P7o4ZiOMl-210" value="ARTISTA" style="text;html=1;align=center;verticalAlign=middle;resizable=0;points=[];autosize=1;strokeColor=none;fillColor=none;" vertex="1" parent="1">
          <mxGeometry x="80" y="760" width="70" height="30" as="geometry" />
        </mxCell>
        <mxCell id="YznO8OeNDI3P7o4ZiOMl-217" value="ID" style="text;html=1;align=center;verticalAlign=middle;resizable=0;points=[];autosize=1;strokeColor=none;fillColor=none;" vertex="1" parent="1">
          <mxGeometry x="284" y="790" width="40" height="30" as="geometry" />
        </mxCell>
        <mxCell id="YznO8OeNDI3P7o4ZiOMl-218" value="APRESENTADORES" style="text;html=1;align=center;verticalAlign=middle;resizable=0;points=[];autosize=1;strokeColor=none;fillColor=none;" vertex="1" parent="1">
          <mxGeometry x="259" y="890" width="140" height="30" as="geometry" />
        </mxCell>
        <mxCell id="YznO8OeNDI3P7o4ZiOMl-219" value="ESTILO_MUSIC" style="text;html=1;align=center;verticalAlign=middle;resizable=0;points=[];autosize=1;strokeColor=none;fillColor=none;" vertex="1" parent="1">
          <mxGeometry x="70" y="830" width="110" height="30" as="geometry" />
        </mxCell>
        <mxCell id="YznO8OeNDI3P7o4ZiOMl-220" value="ASSUNTO" style="text;html=1;align=center;verticalAlign=middle;resizable=0;points=[];autosize=1;strokeColor=none;fillColor=none;" vertex="1" parent="1">
          <mxGeometry x="324" y="780" width="80" height="30" as="geometry" />
        </mxCell>
        <mxCell id="YznO8OeNDI3P7o4ZiOMl-221" value="0, N" style="text;html=1;align=center;verticalAlign=middle;resizable=0;points=[];autosize=1;strokeColor=none;fillColor=none;" vertex="1" parent="1">
          <mxGeometry x="80" y="620" width="50" height="30" as="geometry" />
        </mxCell>
        <mxCell id="YznO8OeNDI3P7o4ZiOMl-222" value="0, N" style="text;html=1;align=center;verticalAlign=middle;resizable=0;points=[];autosize=1;strokeColor=none;fillColor=none;" vertex="1" parent="1">
          <mxGeometry x="145" y="380" width="50" height="30" as="geometry" />
        </mxCell>
        <mxCell id="YznO8OeNDI3P7o4ZiOMl-223" value="0, N" style="text;html=1;align=center;verticalAlign=middle;resizable=0;points=[];autosize=1;strokeColor=none;fillColor=none;" vertex="1" parent="1">
          <mxGeometry x="310" y="620" width="50" height="30" as="geometry" />
        </mxCell>
        <mxCell id="YznO8OeNDI3P7o4ZiOMl-224" value="0, N" style="text;html=1;align=center;verticalAlign=middle;resizable=0;points=[];autosize=1;strokeColor=none;fillColor=none;" vertex="1" parent="1">
          <mxGeometry x="200" y="340" width="50" height="30" as="geometry" />
        </mxCell>
        <mxCell id="YznO8OeNDI3P7o4ZiOMl-225" style="edgeStyle=orthogonalEdgeStyle;rounded=0;orthogonalLoop=1;jettySize=auto;html=1;exitX=0.5;exitY=1;exitDx=0;exitDy=0;entryX=0.65;entryY=-0.067;entryDx=0;entryDy=0;entryPerimeter=0;" edge="1" parent="1" source="YznO8OeNDI3P7o4ZiOMl-180" target="YznO8OeNDI3P7o4ZiOMl-179">
          <mxGeometry relative="1" as="geometry" />
        </mxCell>
        <mxCell id="YznO8OeNDI3P7o4ZiOMl-237" style="edgeStyle=orthogonalEdgeStyle;rounded=0;orthogonalLoop=1;jettySize=auto;html=1;exitX=0.5;exitY=1;exitDx=0;exitDy=0;entryX=0.5;entryY=0;entryDx=0;entryDy=0;" edge="1" parent="1" source="YznO8OeNDI3P7o4ZiOMl-226" target="YznO8OeNDI3P7o4ZiOMl-236">
          <mxGeometry relative="1" as="geometry" />
        </mxCell>
        <mxCell id="YznO8OeNDI3P7o4ZiOMl-226" value="ARTISTA" style="whiteSpace=wrap;html=1;" vertex="1" parent="1">
          <mxGeometry x="550" y="650" width="120" height="60" as="geometry" />
        </mxCell>
        <mxCell id="YznO8OeNDI3P7o4ZiOMl-227" value="" style="line;strokeWidth=2;direction=south;html=1;fillColor=#f8cecc;strokeColor=#b85450;" vertex="1" parent="1">
          <mxGeometry x="560" y="460" width="10" height="190" as="geometry" />
        </mxCell>
        <mxCell id="YznO8OeNDI3P7o4ZiOMl-228" value="" style="line;strokeWidth=2;direction=south;html=1;" vertex="1" parent="1">
          <mxGeometry x="590" y="520" width="10" height="130" as="geometry" />
        </mxCell>
        <mxCell id="YznO8OeNDI3P7o4ZiOMl-230" value="" style="line;strokeWidth=2;direction=south;html=1;" vertex="1" parent="1">
          <mxGeometry x="620" y="570" width="10" height="80" as="geometry" />
        </mxCell>
        <mxCell id="YznO8OeNDI3P7o4ZiOMl-231" value="" style="line;strokeWidth=2;direction=south;html=1;" vertex="1" parent="1">
          <mxGeometry x="650" y="610" width="10" height="40" as="geometry" />
        </mxCell>
        <mxCell id="YznO8OeNDI3P7o4ZiOMl-232" value="ID" style="text;html=1;align=center;verticalAlign=middle;resizable=0;points=[];autosize=1;strokeColor=none;fillColor=none;" vertex="1" parent="1">
          <mxGeometry x="545" y="430" width="40" height="30" as="geometry" />
        </mxCell>
        <mxCell id="YznO8OeNDI3P7o4ZiOMl-235" value="NOME" style="text;html=1;align=center;verticalAlign=middle;resizable=0;points=[];autosize=1;strokeColor=none;fillColor=none;" vertex="1" parent="1">
          <mxGeometry x="570" y="490" width="60" height="30" as="geometry" />
        </mxCell>
        <mxCell id="YznO8OeNDI3P7o4ZiOMl-238" style="edgeStyle=orthogonalEdgeStyle;rounded=0;orthogonalLoop=1;jettySize=auto;html=1;exitX=0.5;exitY=1;exitDx=0;exitDy=0;entryX=0;entryY=0.5;entryDx=0;entryDy=0;" edge="1" parent="1" source="YznO8OeNDI3P7o4ZiOMl-236" target="YznO8OeNDI3P7o4ZiOMl-173">
          <mxGeometry relative="1" as="geometry" />
        </mxCell>
        <mxCell id="YznO8OeNDI3P7o4ZiOMl-236" value="PRODUZ" style="shape=rhombus;perimeter=rhombusPerimeter;whiteSpace=wrap;html=1;align=center;" vertex="1" parent="1">
          <mxGeometry x="550" y="870" width="120" height="60" as="geometry" />
        </mxCell>
        <mxCell id="YznO8OeNDI3P7o4ZiOMl-239" value="0, N" style="text;html=1;align=center;verticalAlign=middle;resizable=0;points=[];autosize=1;strokeColor=none;fillColor=none;" vertex="1" parent="1">
          <mxGeometry x="30" y="650" width="50" height="30" as="geometry" />
        </mxCell>
        <mxCell id="YznO8OeNDI3P7o4ZiOMl-240" value="0, N" style="text;html=1;align=center;verticalAlign=middle;resizable=0;points=[];autosize=1;strokeColor=none;fillColor=none;" vertex="1" parent="1">
          <mxGeometry x="620" y="710" width="50" height="30" as="geometry" />
        </mxCell>
        <mxCell id="YznO8OeNDI3P7o4ZiOMl-241" value="ESTILO_MUSIC" style="text;html=1;align=center;verticalAlign=middle;resizable=0;points=[];autosize=1;strokeColor=none;fillColor=none;" vertex="1" parent="1">
          <mxGeometry x="590" y="540" width="110" height="30" as="geometry" />
        </mxCell>
      </root>
    </mxGraphModel>
  </diagram>
</mxfile>
